<svg width="16" height="16" viewBox="0 0 16 16" fill="none" xmlns="http://www.w3.org/2000/svg">
<path fill-rule="evenodd" clip-rule="evenodd" d="M8 14.6667C11.6819 14.6667 14.6667 11.6819 14.6667 8.00004C14.6667 4.31814 11.6819 1.33337 8 1.33337C4.3181 1.33337 1.33334 4.31814 1.33334 8.00004C1.33334 11.6819 4.3181 14.6667 8 14.6667ZM11.7496 5.33018C11.9968 5.55993 12.011 5.94661 11.7812 6.19384L7.13475 11.1938C7.01913 11.3183 6.85694 11.3889 6.68709 11.3889C6.51724 11.3889 6.35506 11.3183 6.23943 11.1938L4.21923 9.01993C3.98948 8.77269 4.00365 8.38602 4.25088 8.15626C4.49812 7.92651 4.88479 7.94068 5.11455 8.18792L6.68709 9.88011L10.8859 5.36183C11.1157 5.1146 11.5023 5.10042 11.7496 5.33018Z" fill="#C7D0D9"/>
</svg>
