<svg width="51" height="50" viewBox="0 0 51 50" fill="none" xmlns="http://www.w3.org/2000/svg">
<path fill-rule="evenodd" clip-rule="evenodd" d="M50.5 25C50.5 38.8071 39.3071 50 25.5 50C11.6929 50 0.5 38.8071 0.5 25C0.5 11.1929 11.6929 0 25.5 0C39.3071 0 50.5 11.1929 50.5 25ZM14.6667 14.1667C15.4722 13.3613 16.7781 13.3613 17.5835 14.1667L25.5001 22.0833L33.4167 14.1667C34.2222 13.3613 35.5281 13.3613 36.3335 14.1667C37.139 14.9722 37.139 16.2781 36.3335 17.0835L28.4169 25.0001L36.3335 32.9167C37.139 33.7222 37.139 35.0281 36.3335 35.8335C35.5281 36.639 34.2222 36.639 33.4167 35.8335L25.5001 27.9169L17.5835 35.8335C16.7781 36.639 15.4722 36.639 14.6667 35.8335C13.8613 35.0281 13.8613 33.7222 14.6667 32.9167L22.5833 25.0001L14.6667 17.0835C13.8613 16.2781 13.8613 14.9722 14.6667 14.1667Z" fill="#FF555D"/>
</svg>
