<svg width="144" height="144" viewBox="0 0 144 144" fill="none" xmlns="http://www.w3.org/2000/svg">
<g filter="url(#filter0_d_3532_75042)">
<path fill-rule="evenodd" clip-rule="evenodd" d="M113.667 72C113.667 95.0119 95.012 113.667 72.0002 113.667C48.9883 113.667 30.3335 95.0119 30.3335 72C30.3335 48.9882 48.9883 30.3334 72.0002 30.3334C95.012 30.3334 113.667 48.9882 113.667 72ZM53.9447 53.9446C55.2871 52.6021 57.4636 52.6021 58.806 53.9446L72.0004 67.1389L85.1947 53.9446C86.5371 52.6021 88.7136 52.6021 90.056 53.9446C91.3985 55.287 91.3985 57.4635 90.056 58.8059L76.8617 72.0002L90.056 85.1946C91.3985 86.537 91.3985 88.7135 90.056 90.0559C88.7136 91.3984 86.5371 91.3984 85.1947 90.0559L72.0004 76.8616L58.806 90.0559C57.4636 91.3984 55.2871 91.3984 53.9447 90.0559C52.6023 88.7135 52.6023 86.537 53.9447 85.1946L67.139 72.0002L53.9447 58.8059C52.6023 57.4635 52.6023 55.287 53.9447 53.9446Z" fill="#FF555D"/>
<path fill-rule="evenodd" clip-rule="evenodd" d="M53.9448 53.9446C55.2872 52.6021 57.4637 52.6021 58.8062 53.9446L72.0005 67.1389L85.1948 53.9446C86.5372 52.6021 88.7137 52.6021 90.0562 53.9446C91.3986 55.287 91.3986 57.4635 90.0562 58.8059L76.8618 72.0002L90.0562 85.1946C91.3986 86.537 91.3986 88.7135 90.0562 90.0559C88.7137 91.3984 86.5372 91.3984 85.1948 90.0559L72.0005 76.8616L58.8062 90.0559C57.4637 91.3984 55.2872 91.3984 53.9448 90.0559C52.6024 88.7135 52.6024 86.537 53.9448 85.1946L67.1391 72.0002L53.9448 58.8059C52.6024 57.4635 52.6024 55.287 53.9448 53.9446Z" fill="white"/>
</g>
<defs>
<filter id="filter0_d_3532_75042" x="-8" y="-8" width="160" height="160" filterUnits="userSpaceOnUse" color-interpolation-filters="sRGB">
<feFlood flood-opacity="0" result="BackgroundImageFix"/>
<feColorMatrix in="SourceAlpha" type="matrix" values="0 0 0 0 0 0 0 0 0 0 0 0 0 0 0 0 0 0 127 0" result="hardAlpha"/>
<feOffset/>
<feGaussianBlur stdDeviation="15"/>
<feComposite in2="hardAlpha" operator="out"/>
<feColorMatrix type="matrix" values="0 0 0 0 1 0 0 0 0 0.333333 0 0 0 0 0.364706 0 0 0 0.5 0"/>
<feBlend mode="normal" in2="BackgroundImageFix" result="effect1_dropShadow_3532_75042"/>
<feBlend mode="normal" in="SourceGraphic" in2="effect1_dropShadow_3532_75042" result="shape"/>
</filter>
</defs>
</svg>
