<svg width="30" height="21" viewBox="0 0 30 21" fill="none" xmlns="http://www.w3.org/2000/svg">
<path fill-rule="evenodd" clip-rule="evenodd" d="M1.43698 0.579501C2.43093 0.353604 3.41981 0.976233 3.64571 1.97018L6.22329 13.3116L12.3667 1.52609C12.7276 0.833737 13.4852 0.443394 14.2585 0.551326C15.0317 0.659258 15.6534 1.24211 15.811 2.00683L18.1405 13.3152L21.3663 7.40135C21.8544 6.50652 22.9754 6.17679 23.8703 6.66488C24.7651 7.15297 25.0948 8.27406 24.6067 9.16889L18.9693 19.5042C18.5985 20.1841 17.8426 20.5601 17.0767 20.4459C16.3108 20.3316 15.6976 19.7513 15.5414 18.9929L13.2423 7.83197L7.17379 19.4736C6.81606 20.1599 6.06817 20.55 5.30065 20.4509C4.53313 20.3517 3.90901 19.7842 3.7375 19.0295L0.0462983 2.78823C-0.179599 1.79428 0.44303 0.805399 1.43698 0.579501Z" fill="#1797B2"/>
<path d="M30 3.11704C30 4.54406 28.8431 5.70088 27.4161 5.70088C25.9891 5.70088 24.8323 4.54406 24.8323 3.11704C24.8323 1.69003 25.9891 0.533203 27.4161 0.533203C28.8431 0.533203 30 1.69003 30 3.11704Z" fill="#1797B2"/>
</svg>
