<svg width="51" height="50" viewBox="0 0 51 50" fill="none" xmlns="http://www.w3.org/2000/svg">
<path fill-rule="evenodd" clip-rule="evenodd" d="M25.5 50C39.3071 50 50.5 38.8071 50.5 25C50.5 11.1929 39.3071 0 25.5 0C11.6929 0 0.5 11.1929 0.5 25C0.5 38.8071 11.6929 50 25.5 50ZM39.5608 14.988C40.488 15.8496 40.5411 17.2996 39.6795 18.2267L22.2553 36.9767C21.8217 37.4433 21.2135 37.7084 20.5766 37.7084C19.9397 37.7084 19.3315 37.4433 18.8979 36.9767L11.3221 28.8246C10.4605 27.8974 10.5137 26.4474 11.4408 25.5858C12.3679 24.7243 13.818 24.7774 14.6795 25.7045L20.5766 32.0503L36.3221 15.1067C37.1837 14.1796 38.6337 14.1264 39.5608 14.988Z" fill="url(#paint0_linear_5914_3043)"/>
<defs>
<linearGradient id="paint0_linear_5914_3043" x1="0.5" y1="15" x2="48.4167" y2="33.3333" gradientUnits="userSpaceOnUse">
<stop stop-color="#1797B2"/>
<stop offset="1" stop-color="#0D5766"/>
</linearGradient>
</defs>
</svg>
