<svg width="84" height="84" viewBox="0 0 84 84" fill="none" xmlns="http://www.w3.org/2000/svg">
<path fill-rule="evenodd" clip-rule="evenodd" d="M42.0002 83.6667C65.012 83.6667 83.6668 65.0119 83.6668 42C83.6668 18.9882 65.012 0.333374 42.0002 0.333374C18.9883 0.333374 0.333496 18.9882 0.333496 42C0.333496 65.0119 18.9883 83.6667 42.0002 83.6667ZM65.4349 25.3134C66.9801 26.7494 67.0687 29.1661 65.6327 30.7113L36.5923 61.9613C35.8697 62.7389 34.856 63.1807 33.7945 63.1807C32.7329 63.1807 31.7192 62.7389 30.9966 61.9613L18.3703 48.3743C16.9344 46.8291 17.023 44.4124 18.5682 42.9764C20.1134 41.5405 22.5301 41.6291 23.9661 43.1743L33.7945 53.7505L60.037 25.5112C61.473 23.966 63.8897 23.8774 65.4349 25.3134Z" fill="#1797B2"/>
</svg>
