<svg width="33" height="32" viewBox="0 0 33 32" fill="none" xmlns="http://www.w3.org/2000/svg">
<path d="M21.493 13.5948C21.318 13.2441 21.318 12.8251 21.493 12.4744L24.046 7.35836C24.162 7.12586 24.15 6.84828 24.013 6.6268C23.876 6.40533 23.635 6.271 23.375 6.271H13.375C10.756 6.271 8.625 8.40659 8.625 11.0312V25.0194C8.625 25.4343 8.961 25.771 9.375 25.771C9.789 25.771 10.125 25.4343 10.125 25.0194V19.8001H23.375C23.635 19.8001 23.876 19.6649 24.013 19.4444C24.149 19.2229 24.162 18.9453 24.046 18.7128L21.493 13.5948ZM10.125 18.2959V11.0303C10.125 9.2344 11.583 7.77325 13.375 7.77325H22.162L20.152 11.8019C19.767 12.5736 19.767 13.4956 20.152 14.2672L22.162 18.2959H10.125Z" fill="#88939E"/>
</svg>
