<svg width="33" height="34" viewBox="0 0 33 34" fill="none" xmlns="http://www.w3.org/2000/svg">
<g filter="url(#filter0_d_4991_1548)">
<path d="M6.625 14.9384C6.625 13.7142 7.18558 12.5574 8.14642 11.7989L13.6464 7.45677C15.0997 6.30948 17.1503 6.30948 18.6036 7.45677L24.1036 11.7989C25.0644 12.5574 25.625 13.7142 25.625 14.9384V21.5C25.625 23.7091 23.8341 25.5 21.625 25.5H19.125H13.125H10.625C8.41586 25.5 6.625 23.7091 6.625 21.5L6.625 14.9384Z" fill="url(#paint0_linear_4991_1548)"/>
<path d="M12.7251 21H16.2251C16.2251 21 18.3583 21 19.7251 21" stroke="white" stroke-width="1.5" stroke-linecap="round"/>
</g>
<defs>
<filter id="filter0_d_4991_1548" x="0.125" y="4" width="32" height="32" filterUnits="userSpaceOnUse" color-interpolation-filters="sRGB">
<feFlood flood-opacity="0" result="BackgroundImageFix"/>
<feColorMatrix in="SourceAlpha" type="matrix" values="0 0 0 0 0 0 0 0 0 0 0 0 0 0 0 0 0 0 127 0" result="hardAlpha"/>
<feOffset dy="4"/>
<feGaussianBlur stdDeviation="2"/>
<feComposite in2="hardAlpha" operator="out"/>
<feColorMatrix type="matrix" values="0 0 0 0 0.0901961 0 0 0 0 0.592157 0 0 0 0 0.698039 0 0 0 0.5 0"/>
<feBlend mode="normal" in2="BackgroundImageFix" result="effect1_dropShadow_4991_1548"/>
<feBlend mode="normal" in="SourceGraphic" in2="effect1_dropShadow_4991_1548" result="shape"/>
</filter>
<linearGradient id="paint0_linear_4991_1548" x1="16.125" y1="5.5" x2="16.125" y2="25.5" gradientUnits="userSpaceOnUse">
<stop stop-color="#1AADCC"/>
<stop offset="1" stop-color="#106C80"/>
</linearGradient>
</defs>
</svg>
