<svg width="33" height="32" viewBox="0 0 33 32" fill="none" xmlns="http://www.w3.org/2000/svg">
<path d="M8.87504 18.8851H8.12504H8.87504ZM11.608 22.0834L11.711 21.3405H11.711L11.608 22.0834ZM21.7943 22.0834L21.6913 21.3405L21.7943 22.0834ZM11.3642 12.087C11.3642 9.13944 13.7536 6.75 16.7011 6.75V5.25C12.9252 5.25 9.86418 8.31101 9.86418 12.087H11.3642ZM11.3642 14.1795V12.087H9.86418V14.1795H11.3642ZM9.62504 18.8851C9.62504 18.4037 9.75675 17.9552 9.98566 17.5714L8.69736 16.8031C8.33374 17.4128 8.12504 18.1257 8.12504 18.8851H9.62504ZM11.711 21.3405C10.5113 21.1742 9.62504 20.1313 9.62504 18.8851H8.12504C8.12504 20.8448 9.52915 22.5524 11.5049 22.8263L11.711 21.3405ZM16.7011 21.772C15.2091 21.772 13.2816 21.5583 11.711 21.3405L11.5049 22.8263C13.0877 23.0458 15.1004 23.272 16.7011 23.272V21.772ZM21.6913 21.3405C20.1207 21.5583 18.1931 21.772 16.7011 21.772V23.272C18.3018 23.272 20.3145 23.0458 21.8973 22.8263L21.6913 21.3405ZM23.7772 18.8851C23.7772 20.1313 22.8909 21.1742 21.6913 21.3405L21.8973 22.8263C23.8731 22.5524 25.2772 20.8448 25.2772 18.8851H23.7772ZM23.4166 17.5714C23.6455 17.9552 23.7772 18.4037 23.7772 18.8851H25.2772C25.2772 18.1257 25.0685 17.4128 24.7049 16.8031L23.4166 17.5714ZM22.0381 12.087V14.1795H23.5381V12.087H22.0381ZM16.7011 6.75C19.6487 6.75 22.0381 9.13944 22.0381 12.087H23.5381C23.5381 8.31101 20.4771 5.25 16.7011 5.25V6.75ZM24.7049 16.8031C24.396 16.2851 24.1155 15.8701 23.8841 15.4066C23.6626 14.9629 23.5381 14.567 23.5381 14.1795H22.0381C22.0381 14.8924 22.2681 15.5278 22.542 16.0766C22.8061 16.6056 23.1619 17.1443 23.4166 17.5714L24.7049 16.8031ZM9.86418 14.1795C9.86418 14.567 9.73966 14.9629 9.51815 15.4066C9.2868 15.8701 9.00625 16.2851 8.69736 16.8031L9.98566 17.5714C10.2404 17.1443 10.5961 16.6056 10.8602 16.0766C11.1342 15.5278 11.3642 14.8923 11.3642 14.1795H9.86418Z" fill="#88939E"/>
<path d="M18.875 24.834C18.4076 25.5369 17.6085 26.0002 16.7011 26.0002C15.7937 26.0002 14.9945 25.5369 14.5272 24.834" stroke="#88939E" stroke-width="1.5" stroke-linecap="round"/>
</svg>
