<svg width="33" height="35" viewBox="0 0 33 35" fill="none" xmlns="http://www.w3.org/2000/svg">
<g filter="url(#filter0_d_4999_9435)">
<path fill-rule="evenodd" clip-rule="evenodd" d="M16.7011 6C13.3394 6 10.6141 8.72522 10.6141 12.087V14.1795C10.6141 15.2798 9.90506 16.2422 9.34147 17.1872C9.0452 17.684 8.875 18.2647 8.875 18.8851C8.875 20.488 10.0202 21.8633 11.6079 22.0834C13.1846 22.3021 15.1547 22.522 16.7011 22.522C18.2474 22.522 20.2176 22.3021 21.7943 22.0834C23.382 21.8633 24.5272 20.488 24.5272 18.8851C24.5272 18.2647 24.357 17.684 24.0607 17.1872C23.4971 16.2422 22.7881 15.2798 22.7881 14.1795V12.087C22.7881 8.72522 20.0628 6 16.7011 6Z" fill="url(#paint0_linear_4999_9435)"/>
<path d="M8.875 18.8851H8.125H8.875ZM11.6079 22.0834L11.7109 21.3405H11.7109L11.6079 22.0834ZM21.7943 22.0834L21.6913 21.3405H21.6912L21.7943 22.0834ZM9.34147 17.1872L8.69731 16.8031L9.34147 17.1872ZM11.3641 12.087C11.3641 9.13944 13.7536 6.75 16.7011 6.75V5.25C12.9251 5.25 9.86414 8.31101 9.86414 12.087H11.3641ZM11.3641 14.1795V12.087H9.86414V14.1795H11.3641ZM9.625 18.8851C9.625 18.4037 9.75671 17.9552 9.98562 17.5714L8.69731 16.8031C8.3337 17.4128 8.125 18.1257 8.125 18.8851H9.625ZM11.7109 21.3405C10.5113 21.1742 9.625 20.1313 9.625 18.8851H8.125C8.125 20.8448 9.52911 22.5524 11.5049 22.8263L11.7109 21.3405ZM16.7011 21.772C15.2091 21.772 13.2815 21.5583 11.7109 21.3405L11.5049 22.8263C13.0877 23.0458 15.1004 23.272 16.7011 23.272V21.772ZM21.6912 21.3405C20.1207 21.5583 18.1931 21.772 16.7011 21.772V23.272C18.3018 23.272 20.3145 23.0458 21.8973 22.8263L21.6912 21.3405ZM23.7772 18.8851C23.7772 20.1313 22.8909 21.1742 21.6913 21.3405L21.8973 22.8263C23.8731 22.5524 25.2772 20.8448 25.2772 18.8851H23.7772ZM23.4166 17.5714C23.6455 17.9552 23.7772 18.4037 23.7772 18.8851H25.2772C25.2772 18.1257 25.0685 17.4128 24.7049 16.8031L23.4166 17.5714ZM22.0381 12.087V14.1795H23.5381V12.087H22.0381ZM16.7011 6.75C19.6486 6.75 22.0381 9.13944 22.0381 12.087H23.5381C23.5381 8.31101 20.477 5.25 16.7011 5.25V6.75ZM24.7049 16.8031C24.396 16.2851 24.1154 15.8701 23.8841 15.4066C23.6626 14.9629 23.5381 14.567 23.5381 14.1795H22.0381C22.0381 14.8924 22.2681 15.5278 22.542 16.0766C22.8061 16.6056 23.1619 17.1443 23.4166 17.5714L24.7049 16.8031ZM9.86414 14.1795C9.86414 14.567 9.73962 14.9629 9.51811 15.4066C9.28676 15.8701 9.00621 16.2851 8.69731 16.8031L9.98562 17.5714C10.2403 17.1443 10.5961 16.6056 10.8602 16.0766C11.1341 15.5278 11.3641 14.8923 11.3641 14.1795H9.86414Z" fill="url(#paint1_linear_4999_9435)"/>
<path d="M18.875 24.834C18.4076 25.5369 17.6085 26.0002 16.7011 26.0002C15.7937 26.0002 14.9945 25.5369 14.5272 24.834" stroke="url(#paint2_linear_4999_9435)" stroke-width="1.5" stroke-linecap="round"/>
</g>
<defs>
<filter id="filter0_d_4999_9435" x="0.875" y="4" width="32" height="32" filterUnits="userSpaceOnUse" color-interpolation-filters="sRGB">
<feFlood flood-opacity="0" result="BackgroundImageFix"/>
<feColorMatrix in="SourceAlpha" type="matrix" values="0 0 0 0 0 0 0 0 0 0 0 0 0 0 0 0 0 0 127 0" result="hardAlpha"/>
<feOffset dy="4"/>
<feGaussianBlur stdDeviation="2"/>
<feComposite in2="hardAlpha" operator="out"/>
<feColorMatrix type="matrix" values="0 0 0 0 0.0901961 0 0 0 0 0.592157 0 0 0 0 0.698039 0 0 0 0.5 0"/>
<feBlend mode="normal" in2="BackgroundImageFix" result="effect1_dropShadow_4999_9435"/>
<feBlend mode="normal" in="SourceGraphic" in2="effect1_dropShadow_4999_9435" result="shape"/>
</filter>
<linearGradient id="paint0_linear_4999_9435" x1="16.7011" y1="6" x2="16.7011" y2="22.522" gradientUnits="userSpaceOnUse">
<stop stop-color="#1AADCC"/>
<stop offset="1" stop-color="#106C80"/>
</linearGradient>
<linearGradient id="paint1_linear_4999_9435" x1="16.7011" y1="6" x2="16.7011" y2="22.522" gradientUnits="userSpaceOnUse">
<stop stop-color="#1AADCC"/>
<stop offset="1" stop-color="#106C80"/>
</linearGradient>
<linearGradient id="paint2_linear_4999_9435" x1="16.7011" y1="24.834" x2="16.7011" y2="26.0002" gradientUnits="userSpaceOnUse">
<stop stop-color="#1AADCC"/>
<stop offset="1" stop-color="#106C80"/>
</linearGradient>
</defs>
</svg>
