<svg width="25" height="29" viewBox="0 0 25 29" fill="none" xmlns="http://www.w3.org/2000/svg">
<g filter="url(#filter0_d_4999_13352)">
<path fill-rule="evenodd" clip-rule="evenodd" d="M4.625 12.9C4.625 16.2748 4.625 17.9621 5.48442 19.145C5.76198 19.5271 6.09794 19.863 6.47997 20.1406C7.66286 21 9.35024 21 12.725 21C16.0998 21 17.7871 21 18.97 20.1406C19.3521 19.863 19.688 19.5271 19.9656 19.145C20.825 17.9621 20.825 16.2748 20.825 12.9V11.1C20.825 10.345 20.825 9.67437 20.8154 9.075L20.7523 9.075C19.9854 9.07506 19.5184 9.0751 19.1155 9.01129C16.9011 8.66057 15.1644 6.92389 14.8137 4.70955C14.7499 4.30664 14.7499 3.83955 14.75 3.07274L14.75 3.00963C14.1506 3 13.48 3 12.725 3C9.35024 3 7.66286 3 6.47997 3.85942C6.09794 4.13698 5.76198 4.47294 5.48442 4.85497C4.625 6.03786 4.625 7.72524 4.625 11.1V12.9ZM9.125 9.525C8.75221 9.525 8.45 9.82721 8.45 10.2C8.45 10.5728 8.75221 10.875 9.125 10.875H11.825C12.1978 10.875 12.5 10.5728 12.5 10.2C12.5 9.82721 12.1978 9.525 11.825 9.525H9.125ZM9.125 13.125C8.75221 13.125 8.45 13.4272 8.45 13.8C8.45 14.1728 8.75221 14.475 9.125 14.475H16.325C16.6978 14.475 17 14.1728 17 13.8C17 13.4272 16.6978 13.125 16.325 13.125H9.125Z" fill="#1797B2"/>
<path d="M19.3266 7.67791C19.6042 7.72187 19.9469 7.72488 20.7662 7.725C20.6812 6.42934 20.4735 5.55405 19.9656 4.85497C19.688 4.47294 19.3521 4.13698 18.97 3.85942C18.271 3.35151 17.3957 3.14377 16.1 3.0588C16.1001 3.87811 16.1031 4.22081 16.1471 4.49836C16.4063 6.13505 17.6899 7.41868 19.3266 7.67791Z" fill="#1797B2"/>
</g>
<defs>
<filter id="filter0_d_4999_13352" x="-3.375" y="0" width="32" height="32" filterUnits="userSpaceOnUse" color-interpolation-filters="sRGB">
<feFlood flood-opacity="0" result="BackgroundImageFix"/>
<feColorMatrix in="SourceAlpha" type="matrix" values="0 0 0 0 0 0 0 0 0 0 0 0 0 0 0 0 0 0 127 0" result="hardAlpha"/>
<feOffset dy="4"/>
<feGaussianBlur stdDeviation="2"/>
<feComposite in2="hardAlpha" operator="out"/>
<feColorMatrix type="matrix" values="0 0 0 0 0.0901961 0 0 0 0 0.592157 0 0 0 0 0.698039 0 0 0 0.5 0"/>
<feBlend mode="normal" in2="BackgroundImageFix" result="effect1_dropShadow_4999_13352"/>
<feBlend mode="normal" in="SourceGraphic" in2="effect1_dropShadow_4999_13352" result="shape"/>
</filter>
</defs>
</svg>
