<svg width="33" height="32" viewBox="0 0 33 32" fill="none" xmlns="http://www.w3.org/2000/svg">
<path d="M23.221 12.3446L23.1037 13.0854L23.221 12.3446ZM19.4804 8.60396L18.7396 8.72128V8.72128L19.4804 8.60396ZM10.48 24.1406L10.9208 23.5338L10.48 24.1406ZM9.48442 23.145L10.0912 22.7042L9.48442 23.145ZM23.9656 23.145L23.3588 22.7042L23.9656 23.145ZM22.97 24.1406L22.5292 23.5338L22.97 24.1406ZM22.97 7.85942L23.4109 7.25266L22.97 7.85942ZM23.9656 8.85497L24.5723 8.41413L23.9656 8.85497ZM10.48 7.85942L10.9208 8.46619L10.48 7.85942ZM9.48442 8.85497L10.0912 9.29581L9.48442 8.85497ZM19.425 7.02604L19.4507 6.27648L19.425 7.02604ZM24.799 12.4L25.5485 12.3743L24.799 12.4ZM13.125 17.05C12.7108 17.05 12.375 17.3858 12.375 17.8C12.375 18.2142 12.7108 18.55 13.125 18.55V17.05ZM20.325 18.55C20.7392 18.55 21.075 18.2142 21.075 17.8C21.075 17.3858 20.7392 17.05 20.325 17.05V18.55ZM13.125 13.45C12.7108 13.45 12.375 13.7858 12.375 14.2C12.375 14.6142 12.7108 14.95 13.125 14.95V13.45ZM15.825 14.95C16.2392 14.95 16.575 14.6142 16.575 14.2C16.575 13.7858 16.2392 13.45 15.825 13.45V14.95ZM23.3384 11.6038C21.7338 11.3497 20.4753 10.0912 20.2212 8.48663L18.7396 8.72128C19.0954 10.9677 20.8573 12.7296 23.1037 13.0854L23.3384 11.6038ZM24.075 15.1V16.9H25.575V15.1H24.075ZM9.375 16.9V15.1H7.875V16.9H9.375ZM16.725 24.25C15.0209 24.25 13.8031 24.249 12.8613 24.1469C11.9336 24.0464 11.3631 23.8552 10.9208 23.5338L10.0391 24.7473C10.7797 25.2854 11.6444 25.5239 12.6997 25.6382C13.7411 25.751 15.0543 25.75 16.725 25.75V24.25ZM7.875 16.9C7.875 18.5707 7.87397 19.8839 7.98679 20.9253C8.10113 21.9806 8.33958 22.8453 8.87766 23.5859L10.0912 22.7042C9.76985 22.2619 9.57858 21.6914 9.47806 20.7637C9.37603 19.8219 9.375 18.6041 9.375 16.9H7.875ZM10.9208 23.5338C10.6025 23.3025 10.3225 23.0226 10.0912 22.7042L8.87766 23.5859C9.20148 24.0316 9.59343 24.4235 10.0391 24.7473L10.9208 23.5338ZM24.075 16.9C24.075 18.6041 24.074 19.8219 23.9719 20.7637C23.8714 21.6914 23.6802 22.2619 23.3588 22.7042L24.5723 23.5859C25.1104 22.8453 25.3489 21.9806 25.4632 20.9253C25.576 19.8839 25.575 18.5707 25.575 16.9H24.075ZM16.725 25.75C18.3957 25.75 19.7089 25.751 20.7503 25.6382C21.8056 25.5239 22.6703 25.2854 23.4109 24.7473L22.5292 23.5338C22.0869 23.8552 21.5164 24.0464 20.5887 24.1469C19.6469 24.249 18.4291 24.25 16.725 24.25V25.75ZM23.3588 22.7042C23.1275 23.0225 22.8476 23.3025 22.5292 23.5338L23.4109 24.7473C23.8566 24.4235 24.2485 24.0316 24.5723 23.5859L23.3588 22.7042ZM22.5292 8.46619C22.8476 8.69749 23.1275 8.97745 23.3588 9.29581L24.5723 8.41413C24.2485 7.96843 23.8566 7.57648 23.4109 7.25266L22.5292 8.46619ZM16.725 6.25C15.0543 6.25 13.7411 6.24897 12.6997 6.36179C11.6444 6.47613 10.7797 6.71458 10.0391 7.25266L10.9208 8.46619C11.3631 8.14485 11.9336 7.95358 12.8613 7.85306C13.8031 7.75103 15.0209 7.75 16.725 7.75V6.25ZM9.375 15.1C9.375 13.3959 9.37603 12.1781 9.47806 11.2363C9.57858 10.3086 9.76985 9.73809 10.0912 9.29581L8.87766 8.41413C8.33958 9.15473 8.10113 10.0194 7.98679 11.0747C7.87397 12.1161 7.875 13.4293 7.875 15.1H9.375ZM10.0391 7.25266C9.59343 7.57648 9.20148 7.96843 8.87766 8.41413L10.0912 9.29581C10.3225 8.97745 10.6025 8.69748 10.9208 8.46619L10.0391 7.25266ZM16.725 7.75C17.7812 7.75 18.655 7.75009 19.3993 7.7756L19.4507 6.27648C18.6752 6.24991 17.7729 6.25 16.725 6.25V7.75ZM19.3993 7.7756C21.0678 7.83276 21.9141 8.0193 22.5292 8.46619L23.4109 7.25266C22.3977 6.51653 21.1377 6.33428 19.4507 6.27648L19.3993 7.7756ZM18.675 7.02604C18.675 7.81734 18.6733 8.30239 18.7396 8.72128L20.2212 8.48663C20.1779 8.21323 20.175 7.87231 20.175 7.02603L18.675 7.02604ZM25.575 15.1C25.575 14.0521 25.5751 13.1498 25.5485 12.3743L24.0494 12.4257C24.0749 13.17 24.075 14.0438 24.075 15.1H25.575ZM25.5485 12.3743C25.4907 10.6873 25.3085 9.42733 24.5723 8.41413L23.3588 9.29581C23.8057 9.91089 23.9922 10.7572 24.0494 12.4257L25.5485 12.3743ZM24.799 11.65C23.9527 11.65 23.6118 11.6471 23.3384 11.6038L23.1037 13.0854C23.5226 13.1517 24.0077 13.15 24.799 13.15L24.799 11.65ZM13.125 18.55H20.325V17.05H13.125V18.55ZM13.125 14.95H15.825V13.45H13.125V14.95Z" fill="#88939E"/>
</svg>
