<svg width="24" height="24" viewBox="0 0 24 24" fill="none" xmlns="http://www.w3.org/2000/svg">
<path d="M20.4985 11.9998C20.4985 12.4138 20.1625 12.7498 19.7485 12.7498H5.55947L11.2795 18.4698C11.5725 18.7628 11.5725 19.2378 11.2795 19.5308C11.1335 19.6768 10.9415 19.7508 10.7495 19.7508C10.5575 19.7508 10.3655 19.6778 10.2195 19.5308L3.21951 12.5308C2.92651 12.2378 2.92651 11.7628 3.21951 11.4697L10.2195 4.46975C10.5125 4.17675 10.9875 4.17675 11.2805 4.46975C11.5735 4.76275 11.5735 5.23779 11.2805 5.53079L5.56051 11.2508H19.7485C20.1625 11.2498 20.4985 11.5858 20.4985 11.9998Z" fill="black"/>
</svg>
