<svg width="32" height="32" viewBox="0 0 32 32" fill="none" xmlns="http://www.w3.org/2000/svg">
<mask id="mask0_2943_60057" style="mask-type:luminance" maskUnits="userSpaceOnUse" x="0" y="0" width="32" height="32">
<path d="M6 0.5H25.9999C29.0374 0.5 31.4999 2.96243 31.4999 6V26C31.4999 29.0376 29.0374 31.5 25.9999 31.5H6C2.96243 31.5 0.5 29.0376 0.5 26V6C0.5 2.96243 2.96243 0.5 6 0.5Z" fill="white" stroke="white"/>
</mask>
<g mask="url(#mask0_2943_60057)">
<path d="M6 0.5H25.9999C29.0374 0.5 31.4999 2.96243 31.4999 6V25.9999C31.4999 29.0374 29.0374 31.4999 25.9999 31.4999H6C2.96243 31.4999 0.5 29.0374 0.5 25.9999V6C0.5 2.96243 2.96243 0.5 6 0.5Z" fill="#1797B2" stroke="#1797B2"/>
<path d="M6 0.5H25.9999C29.0374 0.5 31.4999 2.96243 31.4999 6V25.9999C31.4999 29.0374 29.0374 31.4999 25.9999 31.4999H6C2.96243 31.4999 0.5 29.0374 0.5 25.9999V6C0.5 2.96243 2.96243 0.5 6 0.5Z" fill="#1797B2" stroke="#1797B2"/>
</g>
<path d="M11.4001 19.9897C12.5916 20.9966 14.1112 21.6002 15.7665 21.6002C17.4217 21.6002 18.9413 20.9966 20.1328 19.9897" stroke="white" stroke-width="2" stroke-linecap="round"/>
<path d="M21.0616 12.1718C21.0616 12.9295 20.4473 13.5438 19.6896 13.5438C18.9318 13.5438 18.3176 12.9295 18.3176 12.1718C18.3176 11.4141 18.9318 10.7998 19.6896 10.7998C20.4473 10.7998 21.0616 11.4141 21.0616 12.1718Z" fill="white"/>
<path d="M13.3441 12.1718C13.3441 12.9295 12.7298 13.5438 11.9721 13.5438C11.2144 13.5438 10.6001 12.9295 10.6001 12.1718C10.6001 11.4141 11.2144 10.7998 11.9721 10.7998C12.7298 10.7998 13.3441 11.4141 13.3441 12.1718Z" fill="white"/>
</svg>
